<?xml version="1.0" encoding="UTF-8"?>
<svg version="1.1" xmlns="http://www.w3.org/2000/svg" width="32" height="32">
<path d="M0 0 C6.29559748 -0.48427673 6.29559748 -0.48427673 9.25 1.546875 C11.73432151 5.0293614 11.19597295 7.30455078 10.75 11.5 C10.62109375 12.8096875 10.4921875 14.119375 10.359375 15.46875 C10.24078125 16.6340625 10.1221875 17.799375 10 19 C10 20.32 10 21.64 10 23 C6.37 23 2.74 23 -1 23 C-2.10409975 19.68770075 -1.68923715 17.58108978 -1.18359375 14.19140625 C-0.99293181 11.91563283 -1.19679785 9.99885804 -1.5625 7.75 C-1.98281473 4.14730227 -2.04337416 2.88476353 0 0 Z " fill="#392618" transform="translate(12,5)"/>
<path d="M0 0 C0.33 1.32 0.66 2.64 1 4 C1.763125 3.814375 2.52625 3.62875 3.3125 3.4375 C6 3 6 3 9 4 C9.33 3.34 9.66 2.68 10 2 C10.66 3.65 11.32 5.3 12 7 C11 8 11 8 8.49609375 8.09765625 C6.98208984 8.08025391 6.98208984 8.08025391 5.4375 8.0625 C4.42558594 8.05347656 3.41367188 8.04445313 2.37109375 8.03515625 C1.58863281 8.02355469 0.80617188 8.01195312 0 8 C-1.09658936 4.71023192 -0.79953138 3.28696233 0 0 Z " fill="#0F0D13" transform="translate(11,20)"/>
<path d="M0 0 C1.65 0.33 3.3 0.66 5 1 C5.6875 2.75 5.6875 2.75 6 5 C4.75 7.25 4.75 7.25 3 9 C2.01 9 1.02 9 0 9 C-1.6875 6.5 -1.6875 6.5 -3 4 C-2.01 2.68 -1.02 1.36 0 0 Z " fill="#A58771" transform="translate(15,11)"/>
<path d="M0 0 C0 0.66 0 1.32 0 2 C0.66 2 1.32 2 2 2 C2 2.66 2 3.32 2 4 C-0.9375 3.625 -0.9375 3.625 -4 3 C-4.33 2.34 -4.66 1.68 -5 1 C-3 0 -3 0 0 0 Z " fill="#275BA8" transform="translate(18,20)"/>
</svg>
